<svg xmlns="http://www.w3.org/2000/svg" xmlns:xlink="http://www.w3.org/1999/xlink" viewBox="0 0 204.32 171.66"><defs><style>.cls-1{fill:url(#New_Gradient_Swatch_1);}.cls-2{fill:url(#New_Gradient_Swatch_1-2);}.cls-3{fill:url(#New_Gradient_Swatch_1-3);}.cls-4{fill:url(#New_Gradient_Swatch_1-4);}.cls-5{fill:url(#linear-gradient);}.cls-6{fill:url(#New_Gradient_Swatch_1-8);}.cls-7{fill:url(#New_Gradient_Swatch_1-9);}.cls-8{fill:url(#linear-gradient-2);}</style><linearGradient id="New_Gradient_Swatch_1" x1="132.1" y1="41.17" x2="135.06" y2="41.17" gradientUnits="userSpaceOnUse"><stop offset="0" stop-color="#fcee21"/><stop offset="0.14" stop-color="#f89e1e"/><stop offset="0.26" stop-color="#f7931e"/><stop offset="0.75" stop-color="#ed1c24"/><stop offset="1" stop-color="#f7931e"/></linearGradient><linearGradient id="New_Gradient_Swatch_1-2" x1="138.22" y1="71.59" x2="138.23" y2="71.59" xlink:href="#New_Gradient_Swatch_1"/><linearGradient id="New_Gradient_Swatch_1-3" x1="149.48" y1="70.83" x2="149.5" y2="70.83" xlink:href="#New_Gradient_Swatch_1"/><linearGradient id="New_Gradient_Swatch_1-4" x1="138.35" y1="87.18" x2="138.52" y2="87.18" xlink:href="#New_Gradient_Swatch_1"/><linearGradient id="linear-gradient" y1="85.83" x2="204.32" y2="85.83" gradientUnits="userSpaceOnUse"><stop offset="0" stop-color="#15ffa0"/><stop offset="0.01" stop-color="#15fda1"/><stop offset="0.18" stop-color="#0cd1ae"/><stop offset="0.33" stop-color="#05b1b7"/><stop offset="0.46" stop-color="#019ebd"/><stop offset="0.54" stop-color="#0097bf"/><stop offset="0.62" stop-color="#1f85c8"/><stop offset="0.78" stop-color="#6f58de"/><stop offset="1" stop-color="#e315ff"/></linearGradient><linearGradient id="New_Gradient_Swatch_1-8" x1="138.22" y1="79.4" x2="138.52" y2="79.4" xlink:href="#New_Gradient_Swatch_1"/><linearGradient id="New_Gradient_Swatch_1-9" x1="138.22" y1="79.01" x2="149.5" y2="79.01" xlink:href="#New_Gradient_Swatch_1"/><linearGradient id="linear-gradient-2" x1="119.62" y1="97.3" x2="138.82" y2="97.3" gradientUnits="userSpaceOnUse"><stop offset="0.03" stop-color="#3f96ff"/><stop offset="1" stop-color="#cc6aff"/></linearGradient></defs><g id="Layer_2" data-name="Layer 2"><g id="Layer_1-2" data-name="Layer 1"><path class="cls-1" d="M135.06,42.77a.21.21,0,0,0,0,.06c-.94-1.14-1.91-2.24-2.92-3.32q1.52,1.55,2.91,3.2S135,42.76,135.06,42.77Z"/><path class="cls-2" d="M138.23,71.58v0a0,0,0,0,1,0,0Z"/><path class="cls-3" d="M149.5,70.85h0v0Z"/><path class="cls-4" d="M138.52,87.15l-.17.07v0Z"/><path class="cls-2" d="M138.23,71.58v0a0,0,0,0,1,0,0Z"/><path class="cls-1" d="M135,42.71q-1.39-1.65-2.91-3.2c1,1.08,2,2.18,2.92,3.32a.21.21,0,0,1,0-.06S135,42.73,135,42.71Z"/><path class="cls-5" d="M202.39,111.84a69.47,69.47,0,0,1-25.46,16.75A69.39,69.39,0,0,1,152.5,133a70.81,70.81,0,0,1-10.37-.76,68.76,68.76,0,0,1-7-1.44c-1.7-.44-3.38-.94-5-1.51a66.25,66.25,0,0,1-8.59-3.6l-.11.13a67.51,67.51,0,0,1-7.27-4.27c-1-.64-1.91-1.31-2.84-2a68,68,0,0,1-11.2-10.5l-.54-.63c-.1-.11-.2-.23-.29-.35s-.42-.52-.63-.77-.53-.66-.78-1a68.66,68.66,0,0,1-5-7.39s0,0,0,0a68.26,68.26,0,0,1-4.56-9.38c-.3-.73-.58-1.47-.85-2.22a69,69,0,0,1-3.36-32.94c0-.27.07-.55.13-.8s0-.36.07-.53l.14.3q1.16,2.63,2.5,5.13c.23.45.48.89.73,1.33a69.81,69.81,0,0,0,5.65,8.48c1.36,1.75,2.81,3.44,4.33,5a26.48,26.48,0,0,1,9.44-4.14,28,28,0,0,1,4.19-.59,27.15,27.15,0,0,1,5.23.22l1,.16c.23,0,.46.08.7.14h0c.29.05.56.11.85.18a16.35,16.35,0,0,0,5.74,9.45c.21.17.41.33.62.48a16.13,16.13,0,0,0,7.21,3,.86.86,0,0,0,.17,0,11.45,11.45,0,0,0,1.55.14h.28c.36,0,.72,0,1.07,0h.09l-.12.05c-.24.14-.47.27-.73.39l-.14.08c-.33.16-.66.31-1,.45l-.76.29a16,16,0,0,1-3.9.85,12.31,12.31,0,0,1-1.72.06,15.68,15.68,0,0,1-2-.15,16.1,16.1,0,0,1-2.64-.6,16.19,16.19,0,0,0,7.89,3.88l.72.12.61.07a15.43,15.43,0,0,0,2.14.08c.49,0,1,0,1.46-.1h0l.52,0a10.56,10.56,0,0,0,1.71-.34l.39-.13h0l.21-.07v0l.17,0,.16-.06a10.19,10.19,0,0,0,2.59-1.52l.53-.47a9.84,9.84,0,0,0,1.47-1.68,10.28,10.28,0,0,0,1.64-4c0-.1,0-.23.06-.34v-.11a2.11,2.11,0,0,0,0-.25,3.37,3.37,0,0,0,0-.71,6.12,6.12,0,0,0-5.27-5.85,5.59,5.59,0,0,0-1.08,0h-.23l-.15,0a5.17,5.17,0,0,0-.89.15,9.25,9.25,0,0,1,.82-.68h0l.11-.09.14-.11a10.07,10.07,0,0,1,3-1.47l.51-.14a10.55,10.55,0,0,1,1.8-.27,8.91,8.91,0,0,1,2,.09,9.67,9.67,0,0,1,3,.91c.23.11.45.23.65.35v0s0,0,0,0c-.38-.84-.79-1.67-1.21-2.5a67.72,67.72,0,0,0-3.92-6.75h0c-.95-1.46-2-2.89-3-4.27a68.37,68.37,0,0,0-6.72-7.52c-.84-.82-1.7-1.61-2.59-2.38A26.26,26.26,0,0,1,135,42.83c-.94-1.14-1.91-2.24-2.92-3.32-.19-.22-.39-.42-.59-.62l0,0a67.72,67.72,0,0,0-7.08-6.46c-1.49-1.17-3-2.29-4.62-3.34-.11-1.57-.16-3.14-.16-4.73q0-3.22.3-6.38h0c.11-1.24.25-2.49.43-3.76.11-.79.23-1.58.37-2.37a64.49,64.49,0,0,0-7.86-4.58c-.14-.08-.28-.14-.43-.21A68.8,68.8,0,0,0,91.58.68a70.66,70.66,0,0,0-8-.66,69,69,0,0,0-24,3.69,68.71,68.71,0,0,1,17.1,7.23,70.51,70.51,0,0,0-7.3-.38A69.37,69.37,0,0,0,0,79.92c0,.48,0,1,0,1.42A69.38,69.38,0,0,1,25.07,46.4a69.06,69.06,0,0,0-13,40.45c0,.3,0,.61,0,.9a69.1,69.1,0,0,0,20,47.84,68.44,68.44,0,0,1-3.84-22.36c0-.16,0-.31,0-.46A69.34,69.34,0,0,1,66.07,51a69.4,69.4,0,0,0-16.69,79.65h0a69.5,69.5,0,0,0,40.05,37h0q2.24.79,4.53,1.44a70.08,70.08,0,0,0,33.19,1.06A68.86,68.86,0,0,1,107,165.09q-3-1.28-5.93-2.84a69.75,69.75,0,0,1-10.18-6.68,69.4,69.4,0,0,1-26.4-54.45c0-.49,0-1,0-1.46v-.11a68.9,68.9,0,0,1,7.38-29.62c-.11.47-.2.94-.29,1.41a69.45,69.45,0,0,0,29.12,70.47,68.74,68.74,0,0,0,12.44,6.73c1.14.47,2.3.92,3.47,1.34a69.79,69.79,0,0,0,38,2.31,67.75,67.75,0,0,0,8.73-2.52h0a69.5,69.5,0,0,0,38.29-34h0c1-1.92,1.85-3.87,2.64-5.88C203.69,110.46,203.05,111.15,202.39,111.84ZM114.5,43.66l.62.1a27.22,27.22,0,0,1,4.46,1.13l0,0c.61.21,1.22.45,1.79.71.27.11.55.24.8.36a5.64,5.64,0,0,1,.55.27l-.08.09c-.33.44-.66.91-1,1.38-.17.26-.35.54-.52.82a26.11,26.11,0,0,1,2.93,3.71c.23.35.45.7.66,1.06a27,27,0,0,1,2.88,7c-.83-.93-1.66-1.84-2.53-2.71s-1.59-1.58-2.42-2.33-1.37-1.25-2.08-1.85c-.45-.39-.9-.76-1.36-1.12-1.17-.94-2.36-1.85-3.58-2.7a67.51,67.51,0,0,0-8.9-5.32l-.77-.39h0l-.11,0A26.58,26.58,0,0,1,114.5,43.66Z"/><path class="cls-2" d="M138.23,71.58v0a0,0,0,0,1,0,0Z"/><path class="cls-6" d="M138.35,87.2v0l.17-.07Zm-.13-15.62a0,0,0,0,0,0,0v0Z"/><path class="cls-7" d="M138.35,87.2v0l.17-.07Zm-.13-15.62a0,0,0,0,0,0,0v0Zm11.26-.77v0h0Z"/><path class="cls-7" d="M138.35,87.2v0l.17-.07Zm-.13-15.62a0,0,0,0,0,0,0v0Zm11.26-.77v0h0Z"/><path class="cls-7" d="M138.35,87.2v0l.17-.07Zm-.13-15.62a0,0,0,0,0,0,0v0Zm11.26-.77v0h0Z"/><path class="cls-7" d="M138.35,87.2v0l.17-.07Zm-.13-15.62a0,0,0,0,0,0,0v0Zm11.26-.77v0h0Z"/><path class="cls-8" d="M119.62,93.59a26.55,26.55,0,0,1,11.17,9.23,26.48,26.48,0,0,0,8-9.77,26.74,26.74,0,0,1-14.69-1.27A25.91,25.91,0,0,1,119.62,93.59Z"/></g></g></svg>